G04 #@! TF.GenerationSoftware,KiCad,Pcbnew,(5.1.9-0-10_14)*
G04 #@! TF.CreationDate,2021-02-24T12:23:29+01:00*
G04 #@! TF.ProjectId,l0_Load,6c305f4c-6f61-4642-9e6b-696361645f70,rev?*
G04 #@! TF.SameCoordinates,Original*
G04 #@! TF.FileFunction,Legend,Top*
G04 #@! TF.FilePolarity,Positive*
%FSLAX46Y46*%
G04 Gerber Fmt 4.6, Leading zero omitted, Abs format (unit mm)*
G04 Created by KiCad (PCBNEW (5.1.9-0-10_14)) date 2021-02-24 12:23:29*
%MOMM*%
%LPD*%
G01*
G04 APERTURE LIST*
%ADD10C,0.200000*%
%ADD11C,0.175000*%
%ADD12C,0.120000*%
%ADD13C,0.150000*%
G04 APERTURE END LIST*
D10*
X165021100Y-89758600D02*
G75*
G03*
X165021100Y-89758600I-1270000J0D01*
G01*
X182801100Y-89758600D02*
G75*
G03*
X182801100Y-89758600I-1270000J0D01*
G01*
X182801100Y-79598600D02*
G75*
G03*
X182801100Y-79598600I-1270000J0D01*
G01*
D11*
X179815766Y-87762600D02*
X179782433Y-87829266D01*
X179715766Y-87862600D01*
X179115766Y-87862600D01*
X179815766Y-87395933D02*
X179782433Y-87462600D01*
X179749100Y-87495933D01*
X179682433Y-87529266D01*
X179482433Y-87529266D01*
X179415766Y-87495933D01*
X179382433Y-87462600D01*
X179349100Y-87395933D01*
X179349100Y-87295933D01*
X179382433Y-87229266D01*
X179415766Y-87195933D01*
X179482433Y-87162600D01*
X179682433Y-87162600D01*
X179749100Y-87195933D01*
X179782433Y-87229266D01*
X179815766Y-87295933D01*
X179815766Y-87395933D01*
X179815766Y-86562600D02*
X179449100Y-86562600D01*
X179382433Y-86595933D01*
X179349100Y-86662600D01*
X179349100Y-86795933D01*
X179382433Y-86862600D01*
X179782433Y-86562600D02*
X179815766Y-86629266D01*
X179815766Y-86795933D01*
X179782433Y-86862600D01*
X179715766Y-86895933D01*
X179649100Y-86895933D01*
X179582433Y-86862600D01*
X179549100Y-86795933D01*
X179549100Y-86629266D01*
X179515766Y-86562600D01*
X179815766Y-85929266D02*
X179115766Y-85929266D01*
X179782433Y-85929266D02*
X179815766Y-85995933D01*
X179815766Y-86129266D01*
X179782433Y-86195933D01*
X179749100Y-86229266D01*
X179682433Y-86262600D01*
X179482433Y-86262600D01*
X179415766Y-86229266D01*
X179382433Y-86195933D01*
X179349100Y-86129266D01*
X179349100Y-85995933D01*
X179382433Y-85929266D01*
X179882433Y-85762600D02*
X179882433Y-85229266D01*
X179815766Y-85062600D02*
X179349100Y-85062600D01*
X179415766Y-85062600D02*
X179382433Y-85029266D01*
X179349100Y-84962600D01*
X179349100Y-84862600D01*
X179382433Y-84795933D01*
X179449100Y-84762600D01*
X179815766Y-84762600D01*
X179449100Y-84762600D02*
X179382433Y-84729266D01*
X179349100Y-84662600D01*
X179349100Y-84562600D01*
X179382433Y-84495933D01*
X179449100Y-84462600D01*
X179815766Y-84462600D01*
X179815766Y-84029266D02*
X179782433Y-84095933D01*
X179749100Y-84129266D01*
X179682433Y-84162600D01*
X179482433Y-84162600D01*
X179415766Y-84129266D01*
X179382433Y-84095933D01*
X179349100Y-84029266D01*
X179349100Y-83929266D01*
X179382433Y-83862600D01*
X179415766Y-83829266D01*
X179482433Y-83795933D01*
X179682433Y-83795933D01*
X179749100Y-83829266D01*
X179782433Y-83862600D01*
X179815766Y-83929266D01*
X179815766Y-84029266D01*
X179815766Y-83195933D02*
X179115766Y-83195933D01*
X179782433Y-83195933D02*
X179815766Y-83262600D01*
X179815766Y-83395933D01*
X179782433Y-83462600D01*
X179749100Y-83495933D01*
X179682433Y-83529266D01*
X179482433Y-83529266D01*
X179415766Y-83495933D01*
X179382433Y-83462600D01*
X179349100Y-83395933D01*
X179349100Y-83262600D01*
X179382433Y-83195933D01*
X179349100Y-82395933D02*
X179815766Y-82229266D01*
X179349100Y-82062600D01*
X179115766Y-81662600D02*
X179115766Y-81595933D01*
X179149100Y-81529266D01*
X179182433Y-81495933D01*
X179249100Y-81462600D01*
X179382433Y-81429266D01*
X179549100Y-81429266D01*
X179682433Y-81462600D01*
X179749100Y-81495933D01*
X179782433Y-81529266D01*
X179815766Y-81595933D01*
X179815766Y-81662600D01*
X179782433Y-81729266D01*
X179749100Y-81762600D01*
X179682433Y-81795933D01*
X179549100Y-81829266D01*
X179382433Y-81829266D01*
X179249100Y-81795933D01*
X179182433Y-81762600D01*
X179149100Y-81729266D01*
X179115766Y-81662600D01*
X179749100Y-81129266D02*
X179782433Y-81095933D01*
X179815766Y-81129266D01*
X179782433Y-81162600D01*
X179749100Y-81129266D01*
X179815766Y-81129266D01*
X179115766Y-80662600D02*
X179115766Y-80595933D01*
X179149100Y-80529266D01*
X179182433Y-80495933D01*
X179249100Y-80462600D01*
X179382433Y-80429266D01*
X179549100Y-80429266D01*
X179682433Y-80462600D01*
X179749100Y-80495933D01*
X179782433Y-80529266D01*
X179815766Y-80595933D01*
X179815766Y-80662600D01*
X179782433Y-80729266D01*
X179749100Y-80762600D01*
X179682433Y-80795933D01*
X179549100Y-80829266D01*
X179382433Y-80829266D01*
X179249100Y-80795933D01*
X179182433Y-80762600D01*
X179149100Y-80729266D01*
X179115766Y-80662600D01*
X179749100Y-80129266D02*
X179782433Y-80095933D01*
X179815766Y-80129266D01*
X179782433Y-80162600D01*
X179749100Y-80129266D01*
X179815766Y-80129266D01*
X179815766Y-79429266D02*
X179815766Y-79829266D01*
X179815766Y-79629266D02*
X179115766Y-79629266D01*
X179215766Y-79695933D01*
X179282433Y-79762600D01*
X179315766Y-79829266D01*
D10*
X177501571Y-88703047D02*
X178034904Y-88512571D01*
X177501571Y-88322095D02*
X178034904Y-88512571D01*
X178225380Y-88588761D01*
X178263476Y-88626857D01*
X178301571Y-88703047D01*
X178034904Y-87903047D02*
X177996809Y-87979238D01*
X177920619Y-88017333D01*
X177234904Y-88017333D01*
X177501571Y-87674476D02*
X178034904Y-87522095D01*
X177653952Y-87369714D01*
X178034904Y-87217333D01*
X177501571Y-87064952D01*
X174961571Y-88322095D02*
X175609190Y-88322095D01*
X175685380Y-88360190D01*
X175723476Y-88398285D01*
X175761571Y-88474476D01*
X175761571Y-88588761D01*
X175723476Y-88664952D01*
X175456809Y-88322095D02*
X175494904Y-88398285D01*
X175494904Y-88550666D01*
X175456809Y-88626857D01*
X175418714Y-88664952D01*
X175342523Y-88703047D01*
X175113952Y-88703047D01*
X175037761Y-88664952D01*
X174999666Y-88626857D01*
X174961571Y-88550666D01*
X174961571Y-88398285D01*
X174999666Y-88322095D01*
X175494904Y-87941142D02*
X174961571Y-87941142D01*
X175113952Y-87941142D02*
X175037761Y-87903047D01*
X174999666Y-87864952D01*
X174961571Y-87788761D01*
X174961571Y-87712571D01*
X174961571Y-87445904D02*
X175494904Y-87445904D01*
X175037761Y-87445904D02*
X174999666Y-87407809D01*
X174961571Y-87331619D01*
X174961571Y-87217333D01*
X174999666Y-87141142D01*
X175075857Y-87103047D01*
X175494904Y-87103047D01*
X172548571Y-88779238D02*
X173081904Y-88626857D01*
X172700952Y-88474476D01*
X173081904Y-88322095D01*
X172548571Y-88169714D01*
X173081904Y-87864952D02*
X172281904Y-87864952D01*
X173081904Y-87522095D02*
X172662857Y-87522095D01*
X172586666Y-87560190D01*
X172548571Y-87636380D01*
X172548571Y-87750666D01*
X172586666Y-87826857D01*
X172624761Y-87864952D01*
X172548571Y-87255428D02*
X172548571Y-86950666D01*
X172281904Y-87141142D02*
X172967619Y-87141142D01*
X173043809Y-87103047D01*
X173081904Y-87026857D01*
X173081904Y-86950666D01*
X170414904Y-88588761D02*
X169614904Y-88588761D01*
X169919666Y-88588761D02*
X169881571Y-88512571D01*
X169881571Y-88360190D01*
X169919666Y-88284000D01*
X169957761Y-88245904D01*
X170033952Y-88207809D01*
X170262523Y-88207809D01*
X170338714Y-88245904D01*
X170376809Y-88284000D01*
X170414904Y-88360190D01*
X170414904Y-88512571D01*
X170376809Y-88588761D01*
X170414904Y-87750666D02*
X170376809Y-87826857D01*
X170300619Y-87864952D01*
X169614904Y-87864952D01*
X170414904Y-87445904D02*
X169614904Y-87445904D01*
X170110142Y-87369714D02*
X170414904Y-87141142D01*
X169881571Y-87141142D02*
X170186333Y-87445904D01*
X168001904Y-88518904D02*
X167468571Y-88518904D01*
X167620952Y-88518904D02*
X167544761Y-88480809D01*
X167506666Y-88442714D01*
X167468571Y-88366523D01*
X167468571Y-88290333D01*
X167963809Y-87718904D02*
X168001904Y-87795095D01*
X168001904Y-87947476D01*
X167963809Y-88023666D01*
X167887619Y-88061761D01*
X167582857Y-88061761D01*
X167506666Y-88023666D01*
X167468571Y-87947476D01*
X167468571Y-87795095D01*
X167506666Y-87718904D01*
X167582857Y-87680809D01*
X167659047Y-87680809D01*
X167735238Y-88061761D01*
X168001904Y-86995095D02*
X167201904Y-86995095D01*
X167963809Y-86995095D02*
X168001904Y-87071285D01*
X168001904Y-87223666D01*
X167963809Y-87299857D01*
X167925714Y-87337952D01*
X167849523Y-87376047D01*
X167620952Y-87376047D01*
X167544761Y-87337952D01*
X167506666Y-87299857D01*
X167468571Y-87223666D01*
X167468571Y-87071285D01*
X167506666Y-86995095D01*
D12*
X172352000Y-86680000D02*
X177152000Y-86680000D01*
X172352000Y-75880000D02*
X177152000Y-75880000D01*
X172352000Y-76280000D02*
X170952000Y-76280000D01*
X172352000Y-75880000D02*
X172352000Y-76280000D01*
D13*
X166370000Y-88539000D02*
X179070000Y-88539000D01*
X166370000Y-91039000D02*
X179070000Y-91039000D01*
X179070000Y-88539000D02*
X179070000Y-91039000D01*
X166370000Y-88539000D02*
X166370000Y-91039000D01*
D12*
X166996000Y-84236000D02*
X166996000Y-85436000D01*
X165236000Y-85436000D02*
X165236000Y-84236000D01*
X167140000Y-79018000D02*
X168070000Y-79018000D01*
X170300000Y-79018000D02*
X169370000Y-79018000D01*
X170300000Y-79018000D02*
X170300000Y-76858000D01*
X167140000Y-79018000D02*
X167140000Y-77558000D01*
M02*
