G04 #@! TF.GenerationSoftware,KiCad,Pcbnew,(5.1.9-0-10_14)*
G04 #@! TF.CreationDate,2021-02-24T12:23:29+01:00*
G04 #@! TF.ProjectId,l0_Load,6c305f4c-6f61-4642-9e6b-696361645f70,rev?*
G04 #@! TF.SameCoordinates,Original*
G04 #@! TF.FileFunction,Soldermask,Top*
G04 #@! TF.FilePolarity,Negative*
%FSLAX46Y46*%
G04 Gerber Fmt 4.6, Leading zero omitted, Abs format (unit mm)*
G04 Created by KiCad (PCBNEW (5.1.9-0-10_14)) date 2021-02-24 12:23:29*
%MOMM*%
%LPD*%
G01*
G04 APERTURE LIST*
%ADD10C,1.702000*%
%ADD11C,1.802000*%
%ADD12C,0.100000*%
G04 APERTURE END LIST*
G36*
G01*
X170651000Y-77230000D02*
X170651000Y-76430000D01*
G75*
G02*
X170702000Y-76379000I51000J0D01*
G01*
X172502000Y-76379000D01*
G75*
G02*
X172553000Y-76430000I0J-51000D01*
G01*
X172553000Y-77230000D01*
G75*
G02*
X172502000Y-77281000I-51000J0D01*
G01*
X170702000Y-77281000D01*
G75*
G02*
X170651000Y-77230000I0J51000D01*
G01*
G37*
G36*
G01*
X170651000Y-78510000D02*
X170651000Y-77710000D01*
G75*
G02*
X170702000Y-77659000I51000J0D01*
G01*
X172502000Y-77659000D01*
G75*
G02*
X172553000Y-77710000I0J-51000D01*
G01*
X172553000Y-78510000D01*
G75*
G02*
X172502000Y-78561000I-51000J0D01*
G01*
X170702000Y-78561000D01*
G75*
G02*
X170651000Y-78510000I0J51000D01*
G01*
G37*
G36*
G01*
X170651000Y-79770000D02*
X170651000Y-78970000D01*
G75*
G02*
X170702000Y-78919000I51000J0D01*
G01*
X172502000Y-78919000D01*
G75*
G02*
X172553000Y-78970000I0J-51000D01*
G01*
X172553000Y-79770000D01*
G75*
G02*
X172502000Y-79821000I-51000J0D01*
G01*
X170702000Y-79821000D01*
G75*
G02*
X170651000Y-79770000I0J51000D01*
G01*
G37*
G36*
G01*
X170651000Y-81040000D02*
X170651000Y-80240000D01*
G75*
G02*
X170702000Y-80189000I51000J0D01*
G01*
X172502000Y-80189000D01*
G75*
G02*
X172553000Y-80240000I0J-51000D01*
G01*
X172553000Y-81040000D01*
G75*
G02*
X172502000Y-81091000I-51000J0D01*
G01*
X170702000Y-81091000D01*
G75*
G02*
X170651000Y-81040000I0J51000D01*
G01*
G37*
G36*
G01*
X170651000Y-82320000D02*
X170651000Y-81520000D01*
G75*
G02*
X170702000Y-81469000I51000J0D01*
G01*
X172502000Y-81469000D01*
G75*
G02*
X172553000Y-81520000I0J-51000D01*
G01*
X172553000Y-82320000D01*
G75*
G02*
X172502000Y-82371000I-51000J0D01*
G01*
X170702000Y-82371000D01*
G75*
G02*
X170651000Y-82320000I0J51000D01*
G01*
G37*
G36*
G01*
X170651000Y-83590000D02*
X170651000Y-82790000D01*
G75*
G02*
X170702000Y-82739000I51000J0D01*
G01*
X172502000Y-82739000D01*
G75*
G02*
X172553000Y-82790000I0J-51000D01*
G01*
X172553000Y-83590000D01*
G75*
G02*
X172502000Y-83641000I-51000J0D01*
G01*
X170702000Y-83641000D01*
G75*
G02*
X170651000Y-83590000I0J51000D01*
G01*
G37*
G36*
G01*
X170651000Y-84850000D02*
X170651000Y-84050000D01*
G75*
G02*
X170702000Y-83999000I51000J0D01*
G01*
X172502000Y-83999000D01*
G75*
G02*
X172553000Y-84050000I0J-51000D01*
G01*
X172553000Y-84850000D01*
G75*
G02*
X172502000Y-84901000I-51000J0D01*
G01*
X170702000Y-84901000D01*
G75*
G02*
X170651000Y-84850000I0J51000D01*
G01*
G37*
G36*
G01*
X170651000Y-86130000D02*
X170651000Y-85330000D01*
G75*
G02*
X170702000Y-85279000I51000J0D01*
G01*
X172502000Y-85279000D01*
G75*
G02*
X172553000Y-85330000I0J-51000D01*
G01*
X172553000Y-86130000D01*
G75*
G02*
X172502000Y-86181000I-51000J0D01*
G01*
X170702000Y-86181000D01*
G75*
G02*
X170651000Y-86130000I0J51000D01*
G01*
G37*
G36*
G01*
X176951000Y-86130000D02*
X176951000Y-85330000D01*
G75*
G02*
X177002000Y-85279000I51000J0D01*
G01*
X178802000Y-85279000D01*
G75*
G02*
X178853000Y-85330000I0J-51000D01*
G01*
X178853000Y-86130000D01*
G75*
G02*
X178802000Y-86181000I-51000J0D01*
G01*
X177002000Y-86181000D01*
G75*
G02*
X176951000Y-86130000I0J51000D01*
G01*
G37*
G36*
G01*
X176951000Y-84850000D02*
X176951000Y-84050000D01*
G75*
G02*
X177002000Y-83999000I51000J0D01*
G01*
X178802000Y-83999000D01*
G75*
G02*
X178853000Y-84050000I0J-51000D01*
G01*
X178853000Y-84850000D01*
G75*
G02*
X178802000Y-84901000I-51000J0D01*
G01*
X177002000Y-84901000D01*
G75*
G02*
X176951000Y-84850000I0J51000D01*
G01*
G37*
G36*
G01*
X176951000Y-83590000D02*
X176951000Y-82790000D01*
G75*
G02*
X177002000Y-82739000I51000J0D01*
G01*
X178802000Y-82739000D01*
G75*
G02*
X178853000Y-82790000I0J-51000D01*
G01*
X178853000Y-83590000D01*
G75*
G02*
X178802000Y-83641000I-51000J0D01*
G01*
X177002000Y-83641000D01*
G75*
G02*
X176951000Y-83590000I0J51000D01*
G01*
G37*
G36*
G01*
X176951000Y-82320000D02*
X176951000Y-81520000D01*
G75*
G02*
X177002000Y-81469000I51000J0D01*
G01*
X178802000Y-81469000D01*
G75*
G02*
X178853000Y-81520000I0J-51000D01*
G01*
X178853000Y-82320000D01*
G75*
G02*
X178802000Y-82371000I-51000J0D01*
G01*
X177002000Y-82371000D01*
G75*
G02*
X176951000Y-82320000I0J51000D01*
G01*
G37*
G36*
G01*
X176951000Y-81040000D02*
X176951000Y-80240000D01*
G75*
G02*
X177002000Y-80189000I51000J0D01*
G01*
X178802000Y-80189000D01*
G75*
G02*
X178853000Y-80240000I0J-51000D01*
G01*
X178853000Y-81040000D01*
G75*
G02*
X178802000Y-81091000I-51000J0D01*
G01*
X177002000Y-81091000D01*
G75*
G02*
X176951000Y-81040000I0J51000D01*
G01*
G37*
G36*
G01*
X176951000Y-79770000D02*
X176951000Y-78970000D01*
G75*
G02*
X177002000Y-78919000I51000J0D01*
G01*
X178802000Y-78919000D01*
G75*
G02*
X178853000Y-78970000I0J-51000D01*
G01*
X178853000Y-79770000D01*
G75*
G02*
X178802000Y-79821000I-51000J0D01*
G01*
X177002000Y-79821000D01*
G75*
G02*
X176951000Y-79770000I0J51000D01*
G01*
G37*
G36*
G01*
X176951000Y-78510000D02*
X176951000Y-77710000D01*
G75*
G02*
X177002000Y-77659000I51000J0D01*
G01*
X178802000Y-77659000D01*
G75*
G02*
X178853000Y-77710000I0J-51000D01*
G01*
X178853000Y-78510000D01*
G75*
G02*
X178802000Y-78561000I-51000J0D01*
G01*
X177002000Y-78561000D01*
G75*
G02*
X176951000Y-78510000I0J51000D01*
G01*
G37*
G36*
G01*
X176951000Y-77230000D02*
X176951000Y-76430000D01*
G75*
G02*
X177002000Y-76379000I51000J0D01*
G01*
X178802000Y-76379000D01*
G75*
G02*
X178853000Y-76430000I0J-51000D01*
G01*
X178853000Y-77230000D01*
G75*
G02*
X178802000Y-77281000I-51000J0D01*
G01*
X177002000Y-77281000D01*
G75*
G02*
X176951000Y-77230000I0J51000D01*
G01*
G37*
D10*
X177800000Y-89789000D03*
X175260000Y-89789000D03*
X172720000Y-89789000D03*
X170180000Y-89789000D03*
X167640000Y-89789000D03*
G36*
G01*
X167875000Y-80298999D02*
X167875000Y-81499001D01*
G75*
G02*
X167824001Y-81550000I-50999J0D01*
G01*
X165423999Y-81550000D01*
G75*
G02*
X165373000Y-81499001I0J50999D01*
G01*
X165373000Y-80298999D01*
G75*
G02*
X165423999Y-80248000I50999J0D01*
G01*
X167824001Y-80248000D01*
G75*
G02*
X167875000Y-80298999I0J-50999D01*
G01*
G37*
G36*
G01*
X167875000Y-81798999D02*
X167875000Y-82999001D01*
G75*
G02*
X167824001Y-83050000I-50999J0D01*
G01*
X165423999Y-83050000D01*
G75*
G02*
X165373000Y-82999001I0J50999D01*
G01*
X165373000Y-81798999D01*
G75*
G02*
X165423999Y-81748000I50999J0D01*
G01*
X167824001Y-81748000D01*
G75*
G02*
X167875000Y-81798999I0J-50999D01*
G01*
G37*
G36*
G01*
X169850100Y-86629600D02*
X169850100Y-86029600D01*
G75*
G02*
X169901100Y-85978600I51000J0D01*
G01*
X170301100Y-85978600D01*
G75*
G02*
X170352100Y-86029600I0J-51000D01*
G01*
X170352100Y-86629600D01*
G75*
G02*
X170301100Y-86680600I-51000J0D01*
G01*
X169901100Y-86680600D01*
G75*
G02*
X169850100Y-86629600I0J51000D01*
G01*
G37*
G36*
G01*
X168950100Y-86629600D02*
X168950100Y-86029600D01*
G75*
G02*
X169001100Y-85978600I51000J0D01*
G01*
X169401100Y-85978600D01*
G75*
G02*
X169452100Y-86029600I0J-51000D01*
G01*
X169452100Y-86629600D01*
G75*
G02*
X169401100Y-86680600I-51000J0D01*
G01*
X169001100Y-86680600D01*
G75*
G02*
X168950100Y-86629600I0J51000D01*
G01*
G37*
G36*
G01*
X169258100Y-84675600D02*
X168658100Y-84675600D01*
G75*
G02*
X168607100Y-84624600I0J51000D01*
G01*
X168607100Y-84224600D01*
G75*
G02*
X168658100Y-84173600I51000J0D01*
G01*
X169258100Y-84173600D01*
G75*
G02*
X169309100Y-84224600I0J-51000D01*
G01*
X169309100Y-84624600D01*
G75*
G02*
X169258100Y-84675600I-51000J0D01*
G01*
G37*
G36*
G01*
X169258100Y-85575600D02*
X168658100Y-85575600D01*
G75*
G02*
X168607100Y-85524600I0J51000D01*
G01*
X168607100Y-85124600D01*
G75*
G02*
X168658100Y-85073600I51000J0D01*
G01*
X169258100Y-85073600D01*
G75*
G02*
X169309100Y-85124600I0J-51000D01*
G01*
X169309100Y-85524600D01*
G75*
G02*
X169258100Y-85575600I-51000J0D01*
G01*
G37*
G36*
G01*
X169325100Y-81584600D02*
X169325100Y-82184600D01*
G75*
G02*
X169274100Y-82235600I-51000J0D01*
G01*
X168874100Y-82235600D01*
G75*
G02*
X168823100Y-82184600I0J51000D01*
G01*
X168823100Y-81584600D01*
G75*
G02*
X168874100Y-81533600I51000J0D01*
G01*
X169274100Y-81533600D01*
G75*
G02*
X169325100Y-81584600I0J-51000D01*
G01*
G37*
G36*
G01*
X170225100Y-81584600D02*
X170225100Y-82184600D01*
G75*
G02*
X170174100Y-82235600I-51000J0D01*
G01*
X169774100Y-82235600D01*
G75*
G02*
X169723100Y-82184600I0J51000D01*
G01*
X169723100Y-81584600D01*
G75*
G02*
X169774100Y-81533600I51000J0D01*
G01*
X170174100Y-81533600D01*
G75*
G02*
X170225100Y-81584600I0J-51000D01*
G01*
G37*
G36*
G01*
X169723100Y-81041600D02*
X169723100Y-80441600D01*
G75*
G02*
X169774100Y-80390600I51000J0D01*
G01*
X170174100Y-80390600D01*
G75*
G02*
X170225100Y-80441600I0J-51000D01*
G01*
X170225100Y-81041600D01*
G75*
G02*
X170174100Y-81092600I-51000J0D01*
G01*
X169774100Y-81092600D01*
G75*
G02*
X169723100Y-81041600I0J51000D01*
G01*
G37*
G36*
G01*
X168823100Y-81041600D02*
X168823100Y-80441600D01*
G75*
G02*
X168874100Y-80390600I51000J0D01*
G01*
X169274100Y-80390600D01*
G75*
G02*
X169325100Y-80441600I0J-51000D01*
G01*
X169325100Y-81041600D01*
G75*
G02*
X169274100Y-81092600I-51000J0D01*
G01*
X168874100Y-81092600D01*
G75*
G02*
X168823100Y-81041600I0J51000D01*
G01*
G37*
G36*
G01*
X179278000Y-77981000D02*
X179878000Y-77981000D01*
G75*
G02*
X179929000Y-78032000I0J-51000D01*
G01*
X179929000Y-78432000D01*
G75*
G02*
X179878000Y-78483000I-51000J0D01*
G01*
X179278000Y-78483000D01*
G75*
G02*
X179227000Y-78432000I0J51000D01*
G01*
X179227000Y-78032000D01*
G75*
G02*
X179278000Y-77981000I51000J0D01*
G01*
G37*
G36*
G01*
X179278000Y-77081000D02*
X179878000Y-77081000D01*
G75*
G02*
X179929000Y-77132000I0J-51000D01*
G01*
X179929000Y-77532000D01*
G75*
G02*
X179878000Y-77583000I-51000J0D01*
G01*
X179278000Y-77583000D01*
G75*
G02*
X179227000Y-77532000I0J51000D01*
G01*
X179227000Y-77132000D01*
G75*
G02*
X179278000Y-77081000I51000J0D01*
G01*
G37*
G36*
G01*
X165721000Y-76916000D02*
X165721000Y-77516000D01*
G75*
G02*
X165670000Y-77567000I-51000J0D01*
G01*
X165270000Y-77567000D01*
G75*
G02*
X165219000Y-77516000I0J51000D01*
G01*
X165219000Y-76916000D01*
G75*
G02*
X165270000Y-76865000I51000J0D01*
G01*
X165670000Y-76865000D01*
G75*
G02*
X165721000Y-76916000I0J-51000D01*
G01*
G37*
G36*
G01*
X166621000Y-76916000D02*
X166621000Y-77516000D01*
G75*
G02*
X166570000Y-77567000I-51000J0D01*
G01*
X166170000Y-77567000D01*
G75*
G02*
X166119000Y-77516000I0J51000D01*
G01*
X166119000Y-76916000D01*
G75*
G02*
X166170000Y-76865000I51000J0D01*
G01*
X166570000Y-76865000D01*
G75*
G02*
X166621000Y-76916000I0J-51000D01*
G01*
G37*
G36*
G01*
X169753000Y-85073600D02*
X170353000Y-85073600D01*
G75*
G02*
X170404000Y-85124600I0J-51000D01*
G01*
X170404000Y-85524600D01*
G75*
G02*
X170353000Y-85575600I-51000J0D01*
G01*
X169753000Y-85575600D01*
G75*
G02*
X169702000Y-85524600I0J51000D01*
G01*
X169702000Y-85124600D01*
G75*
G02*
X169753000Y-85073600I51000J0D01*
G01*
G37*
G36*
G01*
X169753000Y-84173600D02*
X170353000Y-84173600D01*
G75*
G02*
X170404000Y-84224600I0J-51000D01*
G01*
X170404000Y-84624600D01*
G75*
G02*
X170353000Y-84675600I-51000J0D01*
G01*
X169753000Y-84675600D01*
G75*
G02*
X169702000Y-84624600I0J51000D01*
G01*
X169702000Y-84224600D01*
G75*
G02*
X169753000Y-84173600I51000J0D01*
G01*
G37*
G36*
G01*
X169723100Y-83327600D02*
X169723100Y-82727600D01*
G75*
G02*
X169774100Y-82676600I51000J0D01*
G01*
X170174100Y-82676600D01*
G75*
G02*
X170225100Y-82727600I0J-51000D01*
G01*
X170225100Y-83327600D01*
G75*
G02*
X170174100Y-83378600I-51000J0D01*
G01*
X169774100Y-83378600D01*
G75*
G02*
X169723100Y-83327600I0J51000D01*
G01*
G37*
G36*
G01*
X168823100Y-83327600D02*
X168823100Y-82727600D01*
G75*
G02*
X168874100Y-82676600I51000J0D01*
G01*
X169274100Y-82676600D01*
G75*
G02*
X169325100Y-82727600I0J-51000D01*
G01*
X169325100Y-83327600D01*
G75*
G02*
X169274100Y-83378600I-51000J0D01*
G01*
X168874100Y-83378600D01*
G75*
G02*
X168823100Y-83327600I0J51000D01*
G01*
G37*
G36*
G01*
X166416000Y-87246000D02*
X165816000Y-87246000D01*
G75*
G02*
X165765000Y-87195000I0J51000D01*
G01*
X165765000Y-86795000D01*
G75*
G02*
X165816000Y-86744000I51000J0D01*
G01*
X166416000Y-86744000D01*
G75*
G02*
X166467000Y-86795000I0J-51000D01*
G01*
X166467000Y-87195000D01*
G75*
G02*
X166416000Y-87246000I-51000J0D01*
G01*
G37*
G36*
G01*
X166416000Y-88146000D02*
X165816000Y-88146000D01*
G75*
G02*
X165765000Y-88095000I0J51000D01*
G01*
X165765000Y-87695000D01*
G75*
G02*
X165816000Y-87644000I51000J0D01*
G01*
X166416000Y-87644000D01*
G75*
G02*
X166467000Y-87695000I0J-51000D01*
G01*
X166467000Y-88095000D01*
G75*
G02*
X166416000Y-88146000I-51000J0D01*
G01*
G37*
G36*
G01*
X165466000Y-83585000D02*
X166766000Y-83585000D01*
G75*
G02*
X166817000Y-83636000I0J-51000D01*
G01*
X166817000Y-84436000D01*
G75*
G02*
X166766000Y-84487000I-51000J0D01*
G01*
X165466000Y-84487000D01*
G75*
G02*
X165415000Y-84436000I0J51000D01*
G01*
X165415000Y-83636000D01*
G75*
G02*
X165466000Y-83585000I51000J0D01*
G01*
G37*
G36*
G01*
X165466000Y-85185000D02*
X166766000Y-85185000D01*
G75*
G02*
X166817000Y-85236000I0J-51000D01*
G01*
X166817000Y-86036000D01*
G75*
G02*
X166766000Y-86087000I-51000J0D01*
G01*
X165466000Y-86087000D01*
G75*
G02*
X165415000Y-86036000I0J51000D01*
G01*
X165415000Y-85236000D01*
G75*
G02*
X165466000Y-85185000I51000J0D01*
G01*
G37*
G36*
G01*
X168320000Y-78757000D02*
X169120000Y-78757000D01*
G75*
G02*
X169171000Y-78808000I0J-51000D01*
G01*
X169171000Y-79708000D01*
G75*
G02*
X169120000Y-79759000I-51000J0D01*
G01*
X168320000Y-79759000D01*
G75*
G02*
X168269000Y-79708000I0J51000D01*
G01*
X168269000Y-78808000D01*
G75*
G02*
X168320000Y-78757000I51000J0D01*
G01*
G37*
G36*
G01*
X167370000Y-76757000D02*
X168170000Y-76757000D01*
G75*
G02*
X168221000Y-76808000I0J-51000D01*
G01*
X168221000Y-77708000D01*
G75*
G02*
X168170000Y-77759000I-51000J0D01*
G01*
X167370000Y-77759000D01*
G75*
G02*
X167319000Y-77708000I0J51000D01*
G01*
X167319000Y-76808000D01*
G75*
G02*
X167370000Y-76757000I51000J0D01*
G01*
G37*
G36*
G01*
X169270000Y-76757000D02*
X170070000Y-76757000D01*
G75*
G02*
X170121000Y-76808000I0J-51000D01*
G01*
X170121000Y-77708000D01*
G75*
G02*
X170070000Y-77759000I-51000J0D01*
G01*
X169270000Y-77759000D01*
G75*
G02*
X169219000Y-77708000I0J51000D01*
G01*
X169219000Y-76808000D01*
G75*
G02*
X169270000Y-76757000I51000J0D01*
G01*
G37*
D11*
X181518600Y-79603600D03*
X181518600Y-77063600D03*
X181518600Y-87223600D03*
X181518600Y-82143600D03*
X181518600Y-89763600D03*
X163743600Y-77063600D03*
X163743600Y-87223600D03*
X163743600Y-82143600D03*
X181518600Y-84683600D03*
X163743600Y-84683600D03*
X163743600Y-89763600D03*
X163743600Y-79603600D03*
D12*
G36*
X170405990Y-85153805D02*
G01*
X170408372Y-85177992D01*
X170415372Y-85201067D01*
X170426737Y-85222331D01*
X170442032Y-85240968D01*
X170460669Y-85256263D01*
X170481933Y-85267628D01*
X170505008Y-85274628D01*
X170529093Y-85277000D01*
X170651000Y-85277000D01*
X170652732Y-85278000D01*
X170653000Y-85279000D01*
X170653000Y-85700599D01*
X170652000Y-85702331D01*
X170650000Y-85702331D01*
X170649010Y-85700795D01*
X170646628Y-85676608D01*
X170639628Y-85653533D01*
X170628263Y-85632269D01*
X170612968Y-85613632D01*
X170594331Y-85598337D01*
X170573067Y-85586972D01*
X170549992Y-85579972D01*
X170525907Y-85577600D01*
X170404000Y-85577600D01*
X170402268Y-85576600D01*
X170402000Y-85575600D01*
X170402000Y-85154001D01*
X170403000Y-85152269D01*
X170405000Y-85152269D01*
X170405990Y-85153805D01*
G37*
G36*
X170652165Y-84046975D02*
G01*
X170653000Y-84048601D01*
X170653000Y-84800599D01*
X170652000Y-84802331D01*
X170650000Y-84802331D01*
X170649010Y-84800795D01*
X170646628Y-84776608D01*
X170639628Y-84753533D01*
X170628263Y-84732269D01*
X170612968Y-84713632D01*
X170594331Y-84698337D01*
X170573067Y-84686972D01*
X170549992Y-84679972D01*
X170525907Y-84677600D01*
X170404000Y-84677600D01*
X170402268Y-84676600D01*
X170402000Y-84675600D01*
X170402000Y-84173600D01*
X170403000Y-84171868D01*
X170404000Y-84171600D01*
X170525907Y-84171600D01*
X170549992Y-84169228D01*
X170573067Y-84162228D01*
X170594331Y-84150863D01*
X170612968Y-84135568D01*
X170628263Y-84116931D01*
X170639628Y-84095667D01*
X170646628Y-84072592D01*
X170649010Y-84048405D01*
X170650175Y-84046779D01*
X170652165Y-84046975D01*
G37*
G36*
X167876732Y-81549000D02*
G01*
X167877000Y-81550000D01*
X167877000Y-81748000D01*
X167876000Y-81749732D01*
X167875000Y-81750000D01*
X165373000Y-81750000D01*
X165371268Y-81749000D01*
X165371000Y-81748000D01*
X165371000Y-81550000D01*
X165372000Y-81548268D01*
X165373000Y-81548000D01*
X167875000Y-81548000D01*
X167876732Y-81549000D01*
G37*
M02*
