G04 #@! TF.GenerationSoftware,KiCad,Pcbnew,(5.1.9-0-10_14)*
G04 #@! TF.CreationDate,2021-02-24T12:23:29+01:00*
G04 #@! TF.ProjectId,l0_Load,6c305f4c-6f61-4642-9e6b-696361645f70,rev?*
G04 #@! TF.SameCoordinates,Original*
G04 #@! TF.FileFunction,Paste,Top*
G04 #@! TF.FilePolarity,Positive*
%FSLAX46Y46*%
G04 Gerber Fmt 4.6, Leading zero omitted, Abs format (unit mm)*
G04 Created by KiCad (PCBNEW (5.1.9-0-10_14)) date 2021-02-24 12:23:29*
%MOMM*%
%LPD*%
G01*
G04 APERTURE LIST*
%ADD10R,1.800000X0.800000*%
%ADD11R,2.400000X1.200000*%
%ADD12R,0.400000X0.600000*%
%ADD13R,0.600000X0.400000*%
%ADD14R,1.300000X0.800000*%
%ADD15R,0.800000X0.900000*%
G04 APERTURE END LIST*
D10*
X171602000Y-76830000D03*
X171602000Y-78110000D03*
X171602000Y-79370000D03*
X171602000Y-80640000D03*
X171602000Y-81920000D03*
X171602000Y-83190000D03*
X171602000Y-84450000D03*
X171602000Y-85730000D03*
X177902000Y-85730000D03*
X177902000Y-84450000D03*
X177902000Y-83190000D03*
X177902000Y-81920000D03*
X177902000Y-80640000D03*
X177902000Y-79370000D03*
X177902000Y-78110000D03*
X177902000Y-76830000D03*
D11*
X166624000Y-80899000D03*
X166624000Y-82399000D03*
D12*
X170101100Y-86329600D03*
X169201100Y-86329600D03*
D13*
X168958100Y-84424600D03*
X168958100Y-85324600D03*
D12*
X169074100Y-81884600D03*
X169974100Y-81884600D03*
X169974100Y-80741600D03*
X169074100Y-80741600D03*
D13*
X179578000Y-78232000D03*
X179578000Y-77332000D03*
D12*
X165470000Y-77216000D03*
X166370000Y-77216000D03*
D13*
X170053000Y-85324600D03*
X170053000Y-84424600D03*
D12*
X169974100Y-83027600D03*
X169074100Y-83027600D03*
D13*
X166116000Y-86995000D03*
X166116000Y-87895000D03*
D14*
X166116000Y-84036000D03*
X166116000Y-85636000D03*
D15*
X168720000Y-79258000D03*
X167770000Y-77258000D03*
X169670000Y-77258000D03*
M02*
