M48
; DRILL file {KiCad (5.1.9-0-10_14)} date Wednesday, February 24, 2021 at 12:22:14 PM
; FORMAT={-:-/ absolute / metric / decimal}
; #@! TF.CreationDate,2021-02-24T12:22:14+01:00
; #@! TF.GenerationSoftware,Kicad,Pcbnew,(5.1.9-0-10_14)
; #@! TF.FileFunction,Plated,1,2,PTH
FMAT,2
METRIC
T1C0.400
T2C1.000
%
G90
G05
T1
X165.783Y-78.964
X167.688Y-83.79
X176.197Y-83.155
T2
X163.744Y-77.064
X163.744Y-79.604
X163.744Y-82.144
X163.744Y-84.684
X163.744Y-87.224
X163.744Y-89.764
X167.64Y-89.789
X170.18Y-89.789
X172.72Y-89.789
X175.26Y-89.789
X177.8Y-89.789
X181.519Y-77.064
X181.519Y-79.604
X181.519Y-82.144
X181.519Y-84.684
X181.519Y-87.224
X181.519Y-89.764
T0
M30
